<?xml version="1.0" encoding="UTF-8"?>
<svg id="Layer_1" data-name="Layer 1" xmlns="http://www.w3.org/2000/svg" viewBox="0 0 227.76 169.12">
  <defs>
    <style>
      .cls-1 {
        fill: #231f20;
      }
    </style>
  </defs>
  <g>
    <path class="cls-1" d="M5.24,6.16L0,8V3.2L6.44.16h4.56v28.8h-5.76V6.16Z"/>
    <path class="cls-1" d="M31.4,6.8c0-.88-.48-1.36-1.36-1.36h-5.76c-.88,0-1.36.48-1.36,1.36v2.72c0,.88.48,1.16,1.36,1.36l7.44,1.6c3.12.68,5.76,2.56,5.76,5.76v5.2c0,3.36-2.32,5.68-5.68,5.68h-8.96c-3.36,0-5.68-2.32-5.68-5.68v-3.68h5.6v2.56c0,.88.48,1.36,1.36,1.36h6.24c.88,0,1.36-.48,1.36-1.36v-3.04c0-.88-.48-1.16-1.36-1.36l-7.44-1.6c-3.12-.68-5.76-2.56-5.76-5.76v-4.88c0-3.36,2.32-5.68,5.68-5.68h8.48c3.36,0,5.68,2.32,5.68,5.68v3.36h-5.6v-2.24Z"/>
    <path class="cls-1" d="M53.68,5.52v23.44h-5.76V5.52h-7.52V.16h20.8v5.36h-7.52Z"/>
    <path class="cls-1" d="M77.68,28.96h-5.96L81,.16h6.72l9.28,28.8h-6.2l-1.88-6.48h-9.32l-1.92,6.48ZM81.2,17.04h6.16l-3.04-10.56-3.12,10.56Z"/>
    <path class="cls-1" d="M123,.16v28.8h-6.2l-10.6-19.64v19.64h-5.4V.16h6.2l10.6,19.64V.16h5.4Z"/>
    <path class="cls-1" d="M151.52.16v28.8h-6.2l-10.6-19.64v19.64h-5.4V.16h6.2l10.6,19.64V.16h5.4Z"/>
    <path class="cls-1" d="M177.96,23.44c0,3.36-2.32,5.68-5.68,5.68h-9.2c-3.36,0-5.68-2.32-5.68-5.68V.16h5.76v22.16c0,.88.48,1.36,1.36,1.36h6.32c.88,0,1.36-.48,1.36-1.36V.16h5.76v23.28Z"/>
    <path class="cls-1" d="M186.8,28.96h-5.96L190.12.16h6.72l9.28,28.8h-6.2l-1.88-6.48h-9.32l-1.92,6.48ZM190.32,17.04h6.16l-3.04-10.56-3.12,10.56Z"/>
    <path class="cls-1" d="M215.68.16v23.36h12.08v5.44h-17.84V.16h5.76Z"/>
  </g>
  <g>
    <path class="cls-1" d="M29.76,42.25v34.56h-7.44l-12.72-23.57v23.57H3.12v-34.56h7.44l12.72,23.57v-23.57h6.48Z"/>
    <path class="cls-1" d="M41.47,76.81h-7.15l11.14-34.56h8.06l11.14,34.56h-7.44l-2.26-7.78h-11.18l-2.3,7.78ZM45.69,62.5h7.39l-3.65-12.67-3.74,12.67Z"/>
    <path class="cls-1" d="M79.39,48.68v28.13h-6.91v-28.13h-9.02v-6.43h24.96v6.43h-9.02Z"/>
    <path class="cls-1" d="M93.4,42.25h6.91v34.56h-6.91v-34.56Z"/>
    <path class="cls-1" d="M125.47,42.05c4.03,0,6.82,2.78,6.82,6.82v21.31c0,4.03-2.79,6.82-6.82,6.82h-11.57c-4.03,0-6.82-2.78-6.82-6.82v-21.31c0-4.03,2.78-6.82,6.82-6.82h11.57ZM125.37,50.21c0-1.06-.58-1.63-1.63-1.63h-8.11c-1.06,0-1.63.58-1.63,1.63v18.63c0,1.06.58,1.63,1.63,1.63h8.11c1.06,0,1.63-.58,1.63-1.63v-18.63Z"/>
    <path class="cls-1" d="M165.69,42.25v34.56h-7.44l-12.72-23.57v23.57h-6.48v-34.56h7.44l12.72,23.57v-23.57h6.48Z"/>
    <path class="cls-1" d="M177.4,76.81h-7.15l11.14-34.56h8.06l11.14,34.56h-7.44l-2.26-7.78h-11.18l-2.3,7.78ZM181.63,62.5h7.39l-3.65-12.67-3.74,12.67Z"/>
    <path class="cls-1" d="M212.06,42.25v28.03h14.5v6.53h-21.41v-34.56h6.91Z"/>
  </g>
  <g>
    <path class="cls-1" d="M32.44,90.14v36.72h-7.9l-13.51-25.04v25.04h-6.88v-36.72h7.9l13.51,25.04v-25.04h6.88Z"/>
    <path class="cls-1" d="M66.15,119.82c0,4.28-2.96,7.24-7.24,7.24h-11.73c-4.28,0-7.24-2.96-7.24-7.24v-29.68h7.34v28.25c0,1.12.61,1.73,1.73,1.73h8.06c1.12,0,1.73-.61,1.73-1.73v-28.25h7.34v29.68Z"/>
    <path class="cls-1" d="M91.55,98.61c0-1.12-.61-1.73-1.73-1.73h-7.96c-1.12,0-1.73.61-1.73,1.73v19.79c0,1.12.61,1.73,1.73,1.73h7.96c1.12,0,1.73-.61,1.73-1.73v-4.49h7.34v5.92c0,4.28-2.96,7.24-7.24,7.24h-11.63c-4.28,0-7.24-2.96-7.24-7.24v-22.64c0-4.28,2.96-7.24,7.24-7.24h11.63c4.28,0,7.24,2.96,7.24,7.24v5.92h-7.34v-4.49Z"/>
    <path class="cls-1" d="M112.77,90.14v29.78h15.4v6.94h-22.74v-36.72h7.34Z"/>
    <path class="cls-1" d="M157.75,90.14v6.94h-16.67v7.55h13.51v6.94h-13.51v8.36h16.67v6.94h-24.02v-36.72h24.02Z"/>
    <path class="cls-1" d="M168.61,126.86h-7.6l11.83-36.72h8.57l11.83,36.72h-7.9l-2.4-8.26h-11.88l-2.45,8.26ZM173.1,111.66h7.85l-3.88-13.46-3.98,13.46Z"/>
    <path class="cls-1" d="M217.26,126.86l-5.92-13.62h-5.92v13.62h-7.34v-36.72h18.71c4.28,0,7.24,2.96,7.24,7.24v8.62c0,3.47-1.94,6.07-5,6.94l6.12,13.92h-7.9ZM216.7,98.81c0-1.12-.61-1.73-1.73-1.73h-9.54v9.33h9.54c1.12,0,1.73-.61,1.73-1.73v-5.87Z"/>
  </g>
  <g>
    <path class="cls-1" d="M15.56,146.8c0-.88-.48-1.36-1.36-1.36h-5.76c-.88,0-1.36.48-1.36,1.36v2.72c0,.88.48,1.16,1.36,1.36l7.44,1.6c3.12.68,5.76,2.56,5.76,5.76v5.2c0,3.36-2.32,5.68-5.68,5.68H7c-3.36,0-5.68-2.32-5.68-5.68v-3.68h5.6v2.56c0,.88.48,1.36,1.36,1.36h6.24c.88,0,1.36-.48,1.36-1.36v-3.04c0-.88-.48-1.16-1.36-1.36l-7.44-1.6c-3.12-.68-5.76-2.56-5.76-5.76v-4.88c0-3.36,2.32-5.68,5.68-5.68h8.48c3.36,0,5.68,2.32,5.68,5.68v3.36h-5.6v-2.24Z"/>
    <path class="cls-1" d="M41.76,140c3.36,0,5.68,2.32,5.68,5.68v17.76c0,3.36-2.32,5.68-5.68,5.68h-9.64c-3.36,0-5.68-2.32-5.68-5.68v-17.76c0-3.36,2.32-5.68,5.68-5.68h9.64ZM41.68,146.8c0-.88-.48-1.36-1.36-1.36h-6.76c-.88,0-1.36.48-1.36,1.36v15.52c0,.88.48,1.36,1.36,1.36h6.76c.88,0,1.36-.48,1.36-1.36v-15.52Z"/>
    <path class="cls-1" d="M73.2,163.44c0,3.36-2.32,5.68-5.68,5.68h-9.2c-3.36,0-5.68-2.32-5.68-5.68v-23.28h5.76v22.16c0,.88.48,1.36,1.36,1.36h6.32c.88,0,1.36-.48,1.36-1.36v-22.16h5.76v23.28Z"/>
    <path class="cls-1" d="M93.8,140.16c3.36,0,5.68,2.32,5.68,5.68v7.28c0,3.36-2.32,5.68-5.68,5.68h-8.96v10.16h-5.76v-28.79h14.72ZM92.36,153.36c.88,0,1.36-.48,1.36-1.36v-5.04c0-.88-.48-1.36-1.36-1.36h-7.52v7.76h7.52Z"/>
    <path class="cls-1" d="M136.88,140.16v28.79h-6.2l-10.6-19.64v19.64h-5.4v-28.79h6.2l10.6,19.64v-19.64h5.4Z"/>
    <path class="cls-1" d="M143.2,140.16h5.76v28.79h-5.76v-28.79Z"/>
    <path class="cls-1" d="M169.68,146.8c0-.88-.48-1.36-1.36-1.36h-6.6c-.88,0-1.36.48-1.36,1.36v15.52c0,.88.48,1.36,1.36,1.36h6.6c.88,0,1.36-.48,1.36-1.36v-4.28h-5.28v-5.2h11.04v10.6c0,3.36-2.32,5.68-5.68,5.68h-9.48c-3.36,0-5.68-2.32-5.68-5.68v-17.76c0-3.36,2.32-5.68,5.68-5.68h9.48c3.36,0,5.68,2.32,5.68,5.68v3.76h-5.76v-2.64Z"/>
    <path class="cls-1" d="M180.96,140.16h5.76v11.36h9.92v-11.36h5.76v28.79h-5.76v-12h-9.92v12h-5.76v-28.79Z"/>
    <path class="cls-1" d="M219.84,145.52v23.44h-5.76v-23.44h-7.52v-5.36h20.8v5.36h-7.52Z"/>
  </g>
</svg>