<?xml version="1.0" encoding="UTF-8"?>
<svg id="Layer_1" xmlns="http://www.w3.org/2000/svg" version="1.1" viewBox="0 0 669.35 696.59">
  <!-- Generator: Adobe Illustrator 29.3.1, SVG Export Plug-In . SVG Version: 2.1.0 Build 151)  -->
  <path d="M550.56,179.72c-1.49,5.94-.98,15.21-2.12,21.72-4.74,27.08-39.06,58.62-66.65,60.35-31.2,1.96-65.16,1.55-96.77.31-2.71-.11-4.89-1.65-7.45-.05l14.68-25.81c22.26-3.03,60.75,5.64,80.02-5.98,25.24-15.22,24.89-67.08-.82-81.6-15.98-9.02-52.82-5.79-71.43-4.57-2.61.17-5.17-1.79-7.86-.15-1.4,1.03-.29,28.13-.55,32.65-1.28,22.05-11.53,52.96-23.62,71.38-6.41,9.76-15.11,17.75-21.84,27.16-2.65,3.71-4.76,5.73-2.66,10.49,2.49,5.63,14.15,16.71,18.5,22.5,37.95,50.48,34.49,102.1,33.62,162.46-.92,64.29-2.71,129.62-1.1,194.02.04,1.71.33,2.94,1.06,4.44h-24c2.62-7.69.12-15.87-.05-23.45-1.85-83.29,3.22-166.76-.08-249.92-5.29-28.67-15.42-57.94-34.9-80.1-9.84-11.19-26.49-27.94-39.58-11.47,13.46,16.33,29.09,31.11,38.78,50.27,31.66,62.6,7.85,154.69,16.87,223.13l-1.05,91.55h-22c-.17-48.83.21-97.7.05-146.55,0-2.86-1.08-5.32-1.09-7.91-.22-62.7,13-126.87-32.44-177.56-20.03-22.34-59.57-40.62-89.52-32.49-1.93.52-6,1.66-6.99,3.49,26.11,7.12,59.75,19.7,77.96,40.54,38.48,44.03,30.16,90.25,29.99,144.01-.07,22.76.99,46.13,1.08,68.92.14,35.84-.19,71.71-.04,107.54h-23l.04-244.54c-3.06-31.05-16.76-56.97-43.12-73.88-13.83-8.87-31.06-17.63-47.84-16.53l-.95,14.82c24.33,8.97,48.54,23.16,60.04,47.46,4.53,9.57,9.08,24.58,9.86,35.14,4.24,57.35-4.12,119.31,1.01,176.99l-1.05,60.55h-25v-236.5c0-4.34-3.9-17.83-5.81-22.19-6.52-14.91-21.72-28.94-38.19-31.31v290h-25V143.07l-20.95,1.05c-.08,2.51-.93,4.89-1.09,7.41-2.89,44.53.9,94.15,1.09,138.99.46,107.85.16,215.95-1.09,323.01-.22,18.51.25,37.05.04,55.54h-24V144.07h-21v525h-24V143.07c-.73-.27-1.2,1-1.5,1h-20.5l1,525h-26V117.06c134.48.89,269.05-1.19,403.55.05,2.63.02,4.98-1.11,7-1.08,20.24.26,51.01,4.91,62.65,23.34s13.79,45.6,8.57,66.96c-1.66,6.78-9.62,18.37-9.62,24.28,0,.4,2.39.84,1.87,2.44,6.25-4.51,12.62-11.35,16.16-18.3,6.21-12.19,8.16-37.67,5.72-51.09-.74-4.08-9.25-26.39-8.49-27.62,3.18-5.1,17.61,6.22,20.39,9.67,2.45,3.02,2.75,4.42,4.27,7.59.62,1.3,2.77-.15.93,3.76l1.99-1.02c-1.5,5.49,3.53,7.61,4.58,12.96M194.56,282.07c6.45,2.33,12.32.07,18.45-.05,34.28-.64,65.56,6.85,96.85-11.15,44.28-25.46,60.69-73.91,56.74-123.35-.53-6.65-1.85-3.5-6.5-3.4-5.51.12-11.05-.18-16.55-.05-.51,18.71,1.89,38.54-3.96,56.54-8.21,25.27-25.55,49.09-51.52,57.48-19.98,6.46-41.43,4.29-61.97,4.03-9.09-.12-18-.82-27.07-1.07-1.23-.34-4.48,5.15-4.48,5.52v15.5ZM194.56,144.07v91.5l1.5,1.5h20c16.2,0,40.78-20.14,48.04-33.96,8.31-15.83,12.39-43.46,1.96-59.04h-71.5ZM318.56,144.07h-23c2.13,22.21,1.62,45.49-7.24,66.26-5.52,12.94-16.71,21-25.76,31.24,2.22.85.82,1.04,1.01,3.49l2.97-1.99.53,2.05c14.46-6.55,25.89-9.04,35.9-22.15,17.27-22.6,20.6-51.39,15.59-78.91Z"/>
  <path d="M564.17,331.83c2.08-1.29,6.7-3,4.63-2.02-9.96,4.74-22.82,7.63-32.57,14.42-.99.69-2.94,1.77-2.63,3.24.39,1.85,14.77,10.53,17.44,12.62,41.26,32.26,53.19,77.41,51.56,128.44l-.04,180.54h-24l.04-197.54c-2.16-51.29-20.7-78.68-64.37-103.63-6.92-3.95-18.61-11-26.19-10.91-2.84.03-5.31,1.08-7.94,1.12-12.82.18-25.83-.94-38.49,1.01l.08,9.32,1.56,1.44c23.37,5.15,48.87,8.3,69.04,21.96,26.77,18.13,43.39,49.45,45.32,81.68,3.44,57.45-2.7,118.28,0,176.09l-1.05,19.45h-24c.28-1.85.99-3.53,1.05-5.45,1.96-62.9-1.6-126.15-.02-189.09-3.8-33.92-20.49-56.69-52.52-68.48-6.52-2.4-24.82-8.14-31.06-8.01-2.59.05-5.66,2.31-8.99,1.97l-1.47,17.07c12.43,1.61,27.43,6.75,38.31,13.19,20.45,12.11,32.6,36.74,33.74,60.26.3,6.07-1.04,11.6-1.09,17.01-.26,30.08.02,60.13.08,90,.05,23.85-.12,47.71-.04,71.54h-26c1.83-13.99,1.45-29.38-.08-43.48-1.28-42.35,5.5-93.1.8-134.74-2.73-24.2-19.1-42.84-43.21-46.81l-1.52,225.03h-24c.74-5.3-.82-10.36-1.05-15.45-2.97-66.15.54-136.64,1.09-203.01.25-29.53.11-76.41-10.28-103.81-.89-2.34-7.45-14.06-6.76-14.73,17.8-.48,35.73.61,53.54.04,34.83-1.12,59.07-5.08,89.76-22.24,78.6-43.93,98.02-140.2,37.21-208.82-34.91-39.4-70.94-51.09-122.97-53.03-96.55-3.61-197.21.8-294,1.1-34.99.11-70.04-.27-105.01-1.09-8.58-.2-18.28-.57-26.54,1.04v-26h450.49c122.44,9.03,205.68,151.94,130.95,257.94-7.62,10.81-20.78,20.92-28.43,31.56-2.73,3.8-2.68,4.27.46,7.54s7.83,5.58,11.5,9.49c35.15,37.43,53.23,81.98,52.07,133.93l-.04,205.54h-24c-.24-25.16.31-50.37.04-75.54-.03-2.61-1.06-5.06-1.09-7.91-.56-59.91,9.69-149.4-19.43-201.57-9.81-17.58-24.42-28.92-36.51-44.49"/>
  <path d="M31.56,70.07l440.55-.05c109.17,6.07,171.29,146.41,71.77,214.86-41.49,28.53-81.82,24.91-129.77,25.23-11.01.07-22.03-.14-33.05-.04l-2.39-1.61-12.1-24.39c2.22.02,4.2.96,6.45,1.04,42.7,1.48,107.33,4.82,145.21-14.88,78.27-40.69,66.82-128.89-9.7-163.64-32.43-14.72-55.53-10.71-89.42-10.49-129.17.87-258.39-.75-387.55-.05v-26Z"/>
</svg>