<?xml version="1.0" encoding="UTF-8"?>
<svg id="Layer_1" data-name="Layer 1" xmlns="http://www.w3.org/2000/svg" viewBox="0 0 90.17 85.6">
  <defs>
    <style>
      .cls-1 {
        fill: #a5c8d1;
      }
    </style>
  </defs>
  <path class="cls-1" d="M14.03,60.55c-3.56,1.13-6.14,1.54-8.02,1.54-3.67,0-4.71-1.55-5.21-2.3-2.31-3.46.38-8.84,8.48-16.92,1.45-1.45,3.04-2.94,4.75-4.46v6.82c-6.32,6.13-9.02,10.31-9.02,11.76.79.29,3.44.26,9.02-1.71v5.27ZM70.77,7.96c6.68-2.67,10.76-3.34,11.96-2.84,0,1.14-1.68,3.97-5.46,8.1,1.18,1.2,2.27,2.47,3.28,3.82,5.4-5.79,8.68-11.28,6.38-14.73-2.31-3.46-8.31-3.04-18.88,1.34-.99.41-2.01.86-3.04,1.32,2.02.83,3.94,1.83,5.76,2.99ZM17.21,54.06c1.48-.6,3.03-1.27,4.67-2.03,1.57-.73,3.21-1.53,4.86-2.38,5.67-2.9,11.83-6.49,17.98-10.46-.02-.2-.03-.4-.03-.6,0-3.01,2.45-5.47,5.47-5.47.94,0,1.83.24,2.6.66,8.68-6.09,16.32-12.3,21.89-17.82-6.08-6.35-14.62-10.32-24.09-10.32-18.39,0-33.34,14.96-33.34,33.34,0,.14,0,.29.01.43h-.01s0,14.64,0,14.64ZM77.77,58.22c3.85-5.44,6.13-12.07,6.13-19.23s-2.25-13.72-6.07-19.15c-5.75,5.64-13.49,11.93-22.26,18.08.03.22.05.45.05.68,0,3.01-2.45,5.47-5.47,5.47-.97,0-1.88-.26-2.67-.7-6.31,4.08-12.64,7.76-18.47,10.74-1.71.88-3.4,1.7-5.03,2.46-2.41,1.12-4.68,2.08-6.77,2.87v26.17h27.88v-13.72c1.78.29,3.6.46,5.47.46,1.1,0,2.19-.06,3.26-.16l6.35,13.43h30.01l-12.4-27.38Z"/>
</svg>