<?xml version="1.0" encoding="UTF-8"?>
<svg id="Layer_1" xmlns="http://www.w3.org/2000/svg" version="1.1" viewBox="0 0 397.12 95.55">
  <!-- Generator: Adobe Illustrator 30.0.0, SVG Export Plug-In . SVG Version: 2.1.1 Build 123)  -->
  <defs>
    <style>
      .st0 {
        fill: #fff;
      }
    </style>
  </defs>
  <path class="st0" d="M24.5,59.73c-3.1.99-5.35,1.34-6.99,1.34-3.2,0-4.1-1.35-4.53-2-2.01-3.02.33-7.7,7.39-14.74,1.26-1.26,2.65-2.56,4.14-3.89v5.94c-5.5,5.34-7.85,8.98-7.86,10.24.69.26,3,.23,7.86-1.49v4.59h0ZM73.93,13.92c5.82-2.32,9.38-2.91,10.42-2.48,0,.99-1.46,3.46-4.75,7.06,1.02,1.04,1.98,2.15,2.86,3.32,4.7-5.04,7.56-9.83,5.56-12.83-2.01-3.02-7.24-2.65-16.45,1.17-.86.36-1.75.75-2.65,1.15,1.76.72,3.43,1.59,5.01,2.6h0ZM27.27,54.08c1.29-.52,2.64-1.11,4.06-1.77,1.37-.64,2.79-1.33,4.23-2.07,4.94-2.53,10.3-5.65,15.66-9.11-.02-.17-.03-.34-.03-.52,0-2.63,2.14-4.76,4.76-4.76.82,0,1.59.21,2.26.57,7.56-5.31,14.21-10.72,19.07-15.53-5.29-5.54-12.74-8.99-20.98-8.99-16.02,0-29.04,13.03-29.04,29.04v.38h0v12.75h.01ZM80.02,57.7c3.36-4.74,5.34-10.51,5.34-16.75s-1.96-11.95-5.29-16.68c-5.01,4.91-11.75,10.39-19.39,15.75.02.19.04.39.04.59,0,2.63-2.14,4.76-4.76,4.76-.84,0-1.64-.22-2.32-.61-5.5,3.55-11.01,6.76-16.09,9.36-1.49.76-2.97,1.48-4.38,2.14-2.1.98-4.08,1.81-5.9,2.5v22.79h24.28v-11.95c1.55.26,3.14.4,4.76.4.96,0,1.91-.05,2.84-.14l5.53,11.7h26.14l-10.8-23.85h0Z"/>
  <path class="st0" d="M108.33,59.57v-24.6h11.95c3.12,0,5.61.78,7.49,2.34s2.81,3.65,2.81,6.27c0,1.85-.48,3.44-1.44,4.76s-2.32,2.3-4.08,2.93l5.76,8.29h-7.06l-5.03-7.42h-4.01v7.42h-6.4,0ZM114.73,46.95h5.8c1.15,0,2.04-.27,2.67-.83.63-.55.95-1.33.95-2.34s-.32-1.83-.95-2.39c-.63-.56-1.52-.84-2.67-.84h-5.8v6.4ZM143.5,60.09c-3.23,0-5.76-.82-7.57-2.46-1.82-1.64-2.72-3.92-2.72-6.85s.91-5.21,2.72-6.85c1.82-1.64,4.34-2.46,7.57-2.46s5.72.82,7.54,2.46,2.72,3.92,2.72,6.85-.91,5.21-2.72,6.85c-1.82,1.64-4.33,2.46-7.54,2.46ZM140.63,53.68c.69.69,1.65,1.04,2.86,1.04s2.17-.34,2.85-1.02,1.02-1.65,1.02-2.92-.34-2.24-1.02-2.92c-.68-.68-1.63-1.02-2.85-1.02s-2.17.35-2.86,1.04-1.04,1.66-1.04,2.9.35,2.21,1.04,2.9ZM160.77,59.57l-5.48-17.57h6.54l3.2,12.34h.91l3.2-12.34h6.5l-5.45,17.57h-9.42ZM178.61,59.57l-.04-17.57h6.12v17.57h-6.08ZM178.61,39.67v-6.47h6.08v6.47h-6.08ZM194.95,45.19c1.52-2.48,3.7-3.73,6.54-3.73,1.87,0,3.34.57,4.41,1.7s1.6,2.74,1.6,4.8v11.6h-6.12v-10.09c0-.8-.2-1.42-.62-1.86s-.99-.67-1.74-.67c-1.03,0-1.9.39-2.62,1.16s-1.07,1.68-1.07,2.71v8.75h-6.12v-17.57h5.27l.21,3.2h.26ZM219.89,68.35c-3.21,0-5.75-.52-7.63-1.55v-5.2c2.04,1.15,4.38,1.72,7.03,1.72,1.8,0,3.21-.44,4.22-1.32s1.51-2.1,1.51-3.67v-.91h-.25c-1.48,1.41-3.29,2.11-5.45,2.11-2.51,0-4.51-.82-6.01-2.46s-2.25-3.83-2.25-6.57.76-4.9,2.27-6.55c1.51-1.65,3.51-2.48,5.99-2.48s4.67.97,6.22,2.92h.25l.14-2.39h5.17v16.17c0,3.21-.98,5.71-2.95,7.5s-4.72,2.69-8.26,2.69h0ZM218.49,53.2c.68.66,1.62.98,2.81.98s2.13-.33,2.81-.98,1.02-1.56,1.02-2.71-.34-2.05-1.02-2.71-1.62-.98-2.81-.98-2.13.33-2.81.98c-.68.66-1.02,1.56-1.02,2.71s.34,2.05,1.02,2.71Z"/>
  <path class="st0" d="M242.33,59.56v-24.6h11.95c3.12,0,5.61.78,7.49,2.34s2.81,3.65,2.81,6.27c0,1.85-.48,3.44-1.44,4.76s-2.32,2.3-4.08,2.93l5.76,8.29h-7.06l-5.03-7.42h-4.01v7.42h-6.4,0ZM248.73,46.94h5.8c1.15,0,2.04-.27,2.67-.83.63-.55.95-1.33.95-2.34s-.32-1.83-.95-2.39c-.63-.56-1.52-.84-2.67-.84h-5.8v6.4h0ZM277.42,60.08c-3.23,0-5.75-.82-7.54-2.46s-2.69-3.92-2.69-6.85.9-5.1,2.71-6.78c1.8-1.69,4.24-2.53,7.31-2.53,2.76,0,4.97.77,6.62,2.3s2.48,3.58,2.48,6.13c0,1.01-.09,1.89-.28,2.64h-12.23c.61,1.8,2.3,2.71,5.06,2.71,2.04,0,3.92-.36,5.66-1.09v4.78c-1.66.77-4.03,1.16-7.1,1.16h0ZM273.63,49.33h6.92s0-.08.02-.16.02-.16.02-.23c0-.75-.3-1.4-.9-1.95s-1.39-.83-2.37-.83c-2.11,0-3.34,1.05-3.69,3.16h0ZM295.08,60.08c-1.8,0-3.26-.45-4.36-1.35-1.1-.9-1.65-2.1-1.65-3.6,0-1.87.81-3.34,2.44-4.41s3.95-1.6,6.98-1.6h2.18v-.56c0-.77-.27-1.32-.81-1.65s-1.42-.49-2.64-.49c-2.39,0-4.87.63-7.45,1.9v-4.92c2.55-1.29,5.35-1.93,8.4-1.93s5.12.51,6.5,1.55c1.38,1.03,2.07,2.65,2.07,4.85v5.48c0,1.1.53,1.65,1.58,1.65.37,0,.84-.07,1.41-.21v4.6c-.87.47-1.97.7-3.3.7-1.24,0-2.27-.29-3.09-.86s-1.34-1.35-1.55-2.34l-.03-.07h-.28c-1.66,2.18-3.8,3.27-6.4,3.27h0ZM297.26,55.8c.87,0,1.63-.3,2.28-.91.66-.61,1.07-1.42,1.23-2.43h-1.97c-2.34,0-3.51.61-3.51,1.83,0,1.01.66,1.51,1.97,1.51ZM322.38,60.08c-3.4,0-6-.83-7.8-2.5-1.8-1.66-2.71-3.94-2.71-6.82s.9-5.16,2.71-6.82c1.8-1.66,4.41-2.5,7.8-2.5,2.65,0,4.87.4,6.68,1.19v5.17c-2.04-.68-4.15-1.02-6.33-1.02-1.43,0-2.53.35-3.3,1.04-.77.69-1.16,1.67-1.16,2.93s.39,2.24,1.16,2.93,1.87,1.04,3.3,1.04c2.18,0,4.29-.34,6.33-1.02v5.17c-1.8.8-4.03,1.19-6.68,1.19v.02ZM341.13,60.08c-2.13,0-3.75-.53-4.85-1.6s-1.65-2.6-1.65-4.59v-6.92h-2.74v-4.99h2.74v-4.67h6.12v4.67h4.71v4.99h-4.71v6.08c0,1.15.61,1.72,1.83,1.72.42,0,.86-.04,1.32-.12s.83-.16,1.11-.25.44-.15.49-.19v5.03c-1.17.56-2.62.84-4.36.84h0ZM358.49,60.08c-3.23,0-5.76-.82-7.57-2.46-1.82-1.64-2.72-3.92-2.72-6.85s.91-5.21,2.72-6.85c1.82-1.64,4.34-2.46,7.57-2.46s5.72.82,7.54,2.46,2.72,3.92,2.72,6.85-.91,5.21-2.72,6.85c-1.82,1.64-4.33,2.46-7.54,2.46ZM355.62,53.67c.69.69,1.65,1.04,2.86,1.04s2.17-.34,2.85-1.02,1.02-1.65,1.02-2.92-.34-2.24-1.02-2.92c-.68-.68-1.63-1.02-2.85-1.02s-2.17.35-2.86,1.04c-.69.69-1.04,1.66-1.04,2.9s.35,2.21,1.04,2.9ZM378.13,45.29c1.62-2.55,3.83-3.83,6.64-3.83h.63v6.36h-.63c-1.83,0-3.33.4-4.5,1.19-1.17.8-1.76,2.05-1.76,3.76v6.78h-6.12v-17.57h5.27l.21,3.3h.26Z"/>
</svg>